# xmcd CD database file
#
# Track frame offsets:
#	150
#	15947
#	29330
#	45097
#	59630
#	74355
#	88482
#	104910
#	120807
#	135967
#	150732
#	166327
#
# Disc length: 2408 seconds
#
# Revision: 5
# Processed by: cddbd v1.5.2PL0 Copyright (c) Steve Scherf et al.
# Submitted via: CDex 1.51
#
DISCID=9509660c
DTITLE=Bellamy Brothers - Rip Off The Knob
DYEAR=1993
DGENRE=Country
TTITLE0=Rip Off The Knob
TTITLE1=Not
TTITLE2=Heartbreak Overload
TTITLE3=Stayin' In Love (With Freddie Fender And Flaco Jeminez)
TTITLE4=Bubba
TTITLE5=The Andy Griffith Show
TTITLE6=Feelin' The Feelin'
TTITLE7=Crazy From The Heart
TTITLE8=I Need More Of You
TTITLE9=Lovers Live Longer
TTITLE10=Sugar Daddy
TTITLE11=Reggae Cowboy (Special Bonus Dance Mix)
EXTD=YEAR: 1993
EXTT0=
EXTT1=
EXTT2=
EXTT3=
EXTT4=
EXTT5=
EXTT6=
EXTT7=
EXTT8=
EXTT9=
EXTT10=
EXTT11=
PLAYORDER=
